<svg width="60" height="60" viewBox="0 0 60 60" fill="none" xmlns="http://www.w3.org/2000/svg">
<rect width="60" height="60" rx="30" fill="white"/>
<g clip-path="url(#clip0_1824_61)">
<path d="M28 27.9997C27.2044 27.9997 26.4413 28.3157 25.8787 28.8783C25.3161 29.4409 25 30.204 25 30.9997C25 31.7953 25.3161 32.5584 25.8787 33.121C26.4413 33.6836 27.2044 33.9997 28 33.9997H32C32.7956 33.9997 33.5587 33.6836 34.1213 33.121C34.6839 32.5584 35 31.7953 35 30.9997C35 30.204 34.6839 29.4409 34.1213 28.8783C33.5587 28.3157 32.7956 27.9997 32 27.9997H28ZM33 30.9997C33 31.2649 32.8946 31.5192 32.7071 31.7068C32.5196 31.8943 32.2652 31.9997 32 31.9997H28C27.7348 31.9997 27.4804 31.8943 27.2929 31.7068C27.1054 31.5192 27 31.2649 27 30.9997C27 30.7344 27.1054 30.4801 27.2929 30.2925C27.4804 30.105 27.7348 29.9997 28 29.9997H32C32.2652 29.9997 32.5196 30.105 32.7071 30.2925C32.8946 30.4801 33 30.7344 33 30.9997ZM35 36.9997C35 37.2649 34.8946 37.5192 34.7071 37.7068C34.5196 37.8943 34.2652 37.9997 34 37.9997H26C25.7348 37.9997 25.4804 37.8943 25.2929 37.7068C25.1054 37.5192 25 37.2649 25 36.9997C25 36.7344 25.1054 36.4801 25.2929 36.2925C25.4804 36.105 25.7348 35.9997 26 35.9997H34C34.2652 35.9997 34.5196 36.105 34.7071 36.2925C34.8946 36.4801 35 36.7344 35 36.9997ZM37.536 21.1206L35.878 19.4646C35.4149 18.9989 34.864 18.6296 34.2572 18.3781C33.6504 18.1267 32.9998 17.998 32.343 17.9996H26C24.6744 18.0012 23.4036 18.5285 22.4662 19.4659C21.5289 20.4032 21.0016 21.6741 21 22.9996V36.9997C21.0016 38.3252 21.5289 39.5961 22.4662 40.5334C23.4036 41.4708 24.6744 41.9981 26 41.9997H34C35.3256 41.9981 36.5964 41.4708 37.5338 40.5334C38.4711 39.5961 38.9984 38.3252 39 36.9997V24.6566C39.0019 23.9997 38.8735 23.349 38.6222 22.742C38.3709 22.1351 38.0017 21.584 37.536 21.1206V21.1206ZM36.122 22.5346C36.2627 22.6771 36.3893 22.8328 36.5 22.9996H34V20.4996C34.1671 20.6092 34.3226 20.7355 34.464 20.8766L36.122 22.5346ZM37 36.9997C37 37.7953 36.6839 38.5584 36.1213 39.121C35.5587 39.6836 34.7956 39.9997 34 39.9997H26C25.2044 39.9997 24.4413 39.6836 23.8787 39.121C23.3161 38.5584 23 37.7953 23 36.9997V22.9996C23 22.204 23.3161 21.4409 23.8787 20.8783C24.4413 20.3157 25.2044 19.9996 26 19.9996H32V22.9996C32 23.5301 32.2107 24.0388 32.5858 24.4139C32.9609 24.7889 33.4696 24.9996 34 24.9996H37V36.9997Z" fill="#333333"/>
</g>
<defs>
<clipPath id="clip0_1824_61">
<rect width="24" height="24" fill="white" transform="translate(18 18)"/>
</clipPath>
</defs>
</svg>
