<svg width="60" height="60" viewBox="0 0 60 60" fill="none" xmlns="http://www.w3.org/2000/svg">
<rect width="60" height="60" rx="30" fill="white"/>
<g clip-path="url(#clip0_1824_60)">
<path d="M34 18H26C24.6744 18.0016 23.4036 18.5289 22.4662 19.4662C21.5289 20.4036 21.0016 21.6744 21 23V41C21.0001 41.1819 21.0499 41.3603 21.1439 41.516C21.2379 41.6717 21.3726 41.7989 21.5334 41.8837C21.6943 41.9686 21.8753 42.008 22.0569 41.9976C22.2385 41.9873 22.4138 41.9276 22.564 41.825L24.67 40.386L26.776 41.825C26.9424 41.9389 27.1393 41.9999 27.341 41.9999C27.5427 41.9999 27.7396 41.9389 27.906 41.825L30.006 40.386L32.106 41.825C32.2725 41.9392 32.4696 42.0003 32.6715 42.0003C32.8734 42.0003 33.0705 41.9392 33.237 41.825L35.337 40.387L37.437 41.824C37.5871 41.9263 37.7623 41.9857 37.9436 41.996C38.125 42.0062 38.3057 41.9669 38.4664 41.8821C38.627 41.7974 38.7616 41.6706 38.8556 41.5151C38.9496 41.3597 38.9996 41.1816 39 41V23C38.9984 21.6744 38.4711 20.4036 37.5338 19.4662C36.5964 18.5289 35.3256 18.0016 34 18V18ZM37 39.1L35.9 38.348C35.7334 38.2336 35.5361 38.1724 35.334 38.1724C35.1319 38.1724 34.9346 38.2336 34.768 38.348L32.668 39.787L30.568 38.348C30.4015 38.2338 30.2044 38.1727 30.0025 38.1727C29.8006 38.1727 29.6035 38.2338 29.437 38.348L27.337 39.787L25.237 38.348C25.0707 38.2343 24.874 38.1734 24.6725 38.1734C24.471 38.1734 24.2743 38.2343 24.108 38.348L23 39.1V23C23 22.2044 23.3161 21.4413 23.8787 20.8787C24.4413 20.3161 25.2044 20 26 20H34C34.7956 20 35.5587 20.3161 36.1213 20.8787C36.6839 21.4413 37 22.2044 37 23V39.1Z" fill="#333333"/>
<path d="M33.9999 26.0006H25.9999C25.4476 26.0006 24.9999 26.4483 24.9999 27.0006C24.9999 27.5529 25.4476 28.0006 25.9999 28.0006H33.9999C34.5522 28.0006 34.9999 27.5529 34.9999 27.0006C34.9999 26.4483 34.5522 26.0006 33.9999 26.0006Z" fill="#333333"/>
<path d="M31.9999 30H25.9999C25.4476 30 24.9999 30.4477 24.9999 31C24.9999 31.5523 25.4476 32 25.9999 32H31.9999C32.5521 32 32.9999 31.5523 32.9999 31C32.9999 30.4477 32.5521 30 31.9999 30Z" fill="#333333"/>
</g>
<defs>
<clipPath id="clip0_1824_60">
<rect width="24" height="24" fill="white" transform="translate(18 18)"/>
</clipPath>
</defs>
</svg>
