<svg width="60" height="60" viewBox="0 0 60 60" fill="none" xmlns="http://www.w3.org/2000/svg">
<rect width="60" height="60" rx="30" fill="white"/>
<g clip-path="url(#clip0_1824_50)">
<path d="M37 21.022C37 21.014 37 21.008 37 21V19C37 18.7348 36.8946 18.4804 36.7071 18.2929C36.5196 18.1054 36.2652 18 36 18C35.7348 18 35.4804 18.1054 35.2929 18.2929C35.1054 18.4804 35 18.7348 35 19V20.1C34.6709 20.0332 34.3358 19.9997 34 20H33V19C33 18.7348 32.8946 18.4804 32.7071 18.2929C32.5196 18.1054 32.2652 18 32 18C31.7348 18 31.4804 18.1054 31.2929 18.2929C31.1054 18.4804 31 18.7348 31 19V20H29V19C29 18.7348 28.8946 18.4804 28.7071 18.2929C28.5196 18.1054 28.2652 18 28 18C27.7348 18 27.4804 18.1054 27.2929 18.2929C27.1054 18.4804 27 18.7348 27 19V20H26C25.6642 19.9997 25.3291 20.0332 25 20.1V19C25 18.7348 24.8946 18.4804 24.7071 18.2929C24.5196 18.1054 24.2652 18 24 18C23.7348 18 23.4804 18.1054 23.2929 18.2929C23.1054 18.4804 23 18.7348 23 19V21V21.022C22.3808 21.4844 21.8777 22.0845 21.5306 22.775C21.1834 23.4654 21.0018 24.2272 21 25V37C21.0016 38.3256 21.5289 39.5964 22.4662 40.5338C23.4036 41.4711 24.6744 41.9984 26 42H34C35.3256 41.9984 36.5964 41.4711 37.5338 40.5338C38.4711 39.5964 38.9984 38.3256 39 37V25C38.9982 24.2272 38.8166 23.4654 38.4694 22.775C38.1223 22.0845 37.6192 21.4844 37 21.022V21.022ZM37 37C37 37.7956 36.6839 38.5587 36.1213 39.1213C35.5587 39.6839 34.7956 40 34 40H26C25.2044 40 24.4413 39.6839 23.8787 39.1213C23.3161 38.5587 23 37.7956 23 37V25C23 24.2044 23.3161 23.4413 23.8787 22.8787C24.4413 22.3161 25.2044 22 26 22H34C34.7956 22 35.5587 22.3161 36.1213 22.8787C36.6839 23.4413 37 24.2044 37 25V37ZM35 26C35 26.2652 34.8946 26.5196 34.7071 26.7071C34.5196 26.8946 34.2652 27 34 27H26C25.7348 27 25.4804 26.8946 25.2929 26.7071C25.1054 26.5196 25 26.2652 25 26C25 25.7348 25.1054 25.4804 25.2929 25.2929C25.4804 25.1054 25.7348 25 26 25H34C34.2652 25 34.5196 25.1054 34.7071 25.2929C34.8946 25.4804 35 25.7348 35 26ZM35 30C35 30.2652 34.8946 30.5196 34.7071 30.7071C34.5196 30.8946 34.2652 31 34 31H26C25.7348 31 25.4804 30.8946 25.2929 30.7071C25.1054 30.5196 25 30.2652 25 30C25 29.7348 25.1054 29.4804 25.2929 29.2929C25.4804 29.1054 25.7348 29 26 29H34C34.2652 29 34.5196 29.1054 34.7071 29.2929C34.8946 29.4804 35 29.7348 35 30ZM31 34C31 34.2652 30.8946 34.5196 30.7071 34.7071C30.5196 34.8946 30.2652 35 30 35H26C25.7348 35 25.4804 34.8946 25.2929 34.7071C25.1054 34.5196 25 34.2652 25 34C25 33.7348 25.1054 33.4804 25.2929 33.2929C25.4804 33.1054 25.7348 33 26 33H30C30.2652 33 30.5196 33.1054 30.7071 33.2929C30.8946 33.4804 31 33.7348 31 34Z" fill="#333333"/>
</g>
<defs>
<clipPath id="clip0_1824_50">
<rect width="24" height="24" fill="white" transform="translate(18 18)"/>
</clipPath>
</defs>
</svg>
