<svg width="60" height="60" viewBox="0 0 60 60" fill="none" xmlns="http://www.w3.org/2000/svg">
<rect width="60" height="60" rx="30" fill="white"/>
<g clip-path="url(#clip0_1824_54)">
<path d="M39.8 23.5791L32.8 18.8551C31.9742 18.2935 30.9987 17.9932 30 17.9932C29.0014 17.9932 28.0258 18.2935 27.2 18.8551L20.2 23.5791C19.5222 24.0372 18.9671 24.6548 18.5835 25.3774C18.2 26.1001 17.9996 26.9059 18 27.7241V37.0001C18.0016 38.3257 18.5289 39.5965 19.4662 40.5339C20.4036 41.4712 21.6744 41.9985 23 42.0001H37C38.3256 41.9985 39.5964 41.4712 40.5338 40.5339C41.4711 39.5965 41.9984 38.3257 42 37.0001V27.7241C42.0004 26.9059 41.8001 26.1001 41.4165 25.3774C41.0329 24.6548 40.4778 24.0372 39.8 23.5791V23.5791ZM40 37.0001C40 37.7957 39.6839 38.5588 39.1213 39.1214C38.5587 39.684 37.7957 40.0001 37 40.0001H23C22.2044 40.0001 21.4413 39.684 20.8787 39.1214C20.3161 38.5588 20 37.7957 20 37.0001V27.7241C20 27.233 20.1205 26.7494 20.351 26.3158C20.5815 25.8822 20.9149 25.5118 21.322 25.2371L28.322 20.5131C28.817 20.1768 29.4016 19.997 30 19.997C30.5984 19.997 31.183 20.1768 31.678 20.5131L38.678 25.2371C39.0851 25.5118 39.4185 25.8822 39.649 26.3158C39.8795 26.7494 40 27.233 40 27.7241V37.0001ZM30 25.0061C28.8122 25.0059 27.6512 25.3583 26.6638 26.0186C25.6765 26.6789 24.9074 27.6173 24.4539 28.7151C24.0003 29.8129 23.8828 31.0205 24.1163 32.1851C24.3497 33.3497 24.9235 34.4189 25.765 35.2571L27.589 37.0411C28.2353 37.667 29.0998 38.017 29.9995 38.017C30.8992 38.017 31.7637 37.667 32.41 37.0411L34.243 35.2491C35.0823 34.41 35.6538 33.3408 35.8854 32.1768C36.117 31.0128 35.9981 29.8063 35.544 28.7099C35.0898 27.6134 34.3206 26.6763 33.3338 26.017C32.347 25.3577 31.1868 25.0059 30 25.0061V25.0061ZM32.836 33.8271L31.011 35.6121C30.7398 35.8747 30.377 36.0216 29.9995 36.0216C29.622 36.0216 29.2592 35.8747 28.988 35.6121L27.171 33.8351C26.612 33.276 26.2311 32.5638 26.0766 31.7884C25.9221 31.013 26.0009 30.2092 26.3029 29.4786C26.605 28.7479 27.1168 28.1231 27.7737 27.6832C28.4307 27.2432 29.2032 27.0079 29.9939 27.0067C30.7845 27.0056 31.5577 27.2388 32.2159 27.6769C32.8741 28.115 33.3876 28.7383 33.6918 29.4681C33.9959 30.1979 34.0769 31.0015 33.9246 31.7773C33.7723 32.5531 33.3935 33.2664 32.836 33.8271V33.8271ZM31 31.0001C31 31.1979 30.9414 31.3912 30.8315 31.5556C30.7216 31.7201 30.5654 31.8483 30.3827 31.924C30.2 31.9996 29.9989 32.0194 29.8049 31.9809C29.6109 31.9423 29.4327 31.847 29.2929 31.7072C29.153 31.5673 29.0578 31.3891 29.0192 31.1952C28.9806 31.0012 29.0004 30.8001 29.0761 30.6174C29.1518 30.4347 29.28 30.2785 29.4444 30.1686C29.6089 30.0587 29.8022 30.0001 30 30.0001C30.2652 30.0001 30.5196 30.1054 30.7071 30.293C30.8946 30.4805 31 30.7349 31 31.0001Z" fill="#333333"/>
</g>
<defs>
<clipPath id="clip0_1824_54">
<rect width="24" height="24" fill="white" transform="translate(18 18)"/>
</clipPath>
</defs>
</svg>
