<svg width="60" height="60" viewBox="0 0 60 60" fill="none" xmlns="http://www.w3.org/2000/svg">
<rect width="60" height="60" rx="30" fill="white"/>
<g clip-path="url(#clip0_1824_59)">
<path d="M41.1939 29.6003C40.6625 28.8907 39.9076 28.3809 39.0509 28.1533C39.4684 26.9395 39.777 25.6908 39.9729 24.4223C40.0369 23.9611 39.993 23.4914 39.8446 23.0502C39.6962 22.6089 39.4475 22.208 39.1179 21.8792C38.7883 21.5504 38.3869 21.3026 37.9453 21.1553C37.5036 21.008 37.0338 20.9652 36.5729 21.0303C36.4469 21.0473 36.0729 21.1023 35.5619 21.2013C35.8783 20.5007 36.0282 19.7364 35.9999 18.9683C35.9957 18.8369 35.9656 18.7077 35.9115 18.588C35.8574 18.4683 35.7802 18.3604 35.6843 18.2705C35.5885 18.1806 35.4759 18.1105 35.353 18.0641C35.23 18.0178 35.0992 17.9961 34.9679 18.0003C34.8365 18.0045 34.7073 18.0345 34.5876 18.0886C34.4679 18.1428 34.36 18.22 34.2701 18.3158C34.1802 18.4116 34.1101 18.5242 34.0637 18.6471C34.0174 18.7701 33.9957 18.9009 33.9999 19.0323C34.0169 19.5153 33.9178 19.9954 33.7109 20.4323C33.5662 20.0419 33.3599 19.6773 33.0999 19.3523C32.6578 18.8492 32.0967 18.4649 31.4678 18.2347C30.8389 18.0044 30.1623 17.9355 29.4999 18.0343C28.7735 18.0926 28.0793 18.3585 27.4999 18.8003C26.8448 18.3075 26.0523 18.0313 25.2329 18.0103C24.193 17.9095 23.1557 18.2248 22.3479 18.8873C21.9377 19.2524 21.6065 19.6976 21.3747 20.1955C21.1429 20.6933 21.0153 21.2333 20.9999 21.7823C20.9724 22.6613 21.2283 23.5258 21.7299 24.2483C21.1198 24.7714 20.6462 25.4351 20.35 26.1822C20.0538 26.9293 19.9439 27.7372 20.0299 28.5363C19.239 28.977 18.6227 29.6749 18.2833 30.5142C17.9438 31.3535 17.9017 32.2837 18.1639 33.1503C18.8489 35.5338 20.1238 37.7061 21.8709 39.4663C23.5469 41.1005 25.798 42.0106 28.1389 42.0003H31.8609C34.2014 42.0107 36.4523 41.1006 38.1279 39.4663C39.8755 37.7064 41.1509 35.534 41.8359 33.1503C42.0144 32.5496 42.0493 31.9154 41.9378 31.2988C41.8263 30.6822 41.5715 30.1003 41.1939 29.6003ZM36.8509 23.0103C37.0056 22.9894 37.1631 23.0046 37.311 23.0546C37.4589 23.1047 37.5933 23.1882 37.7036 23.2988C37.8138 23.4094 37.897 23.5439 37.9467 23.692C37.9964 23.84 38.0111 23.9976 37.9899 24.1523C37.7801 25.4655 37.4401 26.7545 36.9749 28.0003H34.4139L35.7069 26.7073C35.889 26.5187 35.9898 26.2661 35.9875 26.0039C35.9853 25.7417 35.8801 25.4909 35.6947 25.3054C35.5093 25.12 35.2585 25.0149 34.9963 25.0126C34.7341 25.0103 34.4815 25.1111 34.2929 25.2933L31.5859 28.0003H30.0369C29.9638 27.4743 30.014 26.9386 30.1833 26.4353C30.3527 25.9321 30.6367 25.475 31.0129 25.1003C31.4399 24.6693 33.0769 23.5003 36.8509 23.0103ZM22.9999 21.8493C23.0059 21.574 23.0679 21.3028 23.1823 21.0523C23.2966 20.8018 23.4608 20.5772 23.6649 20.3923C24.0774 20.0873 24.59 19.9494 25.0999 20.0063C25.3461 19.9961 25.5918 20.0382 25.8206 20.1297C26.0495 20.2212 26.2565 20.3601 26.4279 20.5373C26.5628 20.688 26.728 20.8086 26.9127 20.8912C27.0975 20.9737 27.2975 21.0163 27.4999 21.0163V21.0163C27.7017 21.0153 27.9011 20.9718 28.0851 20.8888C28.2691 20.8058 28.4336 20.685 28.5679 20.5343C28.717 20.3765 28.896 20.2499 29.0944 20.1618C29.2929 20.0738 29.5068 20.026 29.7239 20.0213C30.0544 19.9624 30.3944 19.9864 30.7134 20.0911C31.0324 20.1958 31.3205 20.3779 31.5519 20.6213C31.8554 21.0099 32.0139 21.4923 31.9999 21.9853C31.9999 22.0503 31.9999 22.1923 31.9999 22.1923C30.6724 22.6703 29.5384 23.5707 28.7719 24.7553C28.1404 24.0077 27.3002 23.4657 26.3589 23.1984C25.4176 22.9312 24.4179 22.951 23.4879 23.2553C23.156 22.8636 22.982 22.3623 22.9999 21.8493V21.8493ZM21.9999 28.0003C21.9999 27.2046 22.3159 26.4416 22.8785 25.8789C23.4411 25.3163 24.2042 25.0003 24.9999 25.0003C25.7955 25.0003 26.5586 25.3163 27.1212 25.8789C27.6838 26.4416 27.9999 27.2046 27.9999 28.0003H21.9999ZM39.9159 32.5893C39.3184 34.6464 38.2187 36.5227 36.7159 38.0493C35.4164 39.3118 33.6726 40.0125 31.8609 40.0003H28.1389C26.3266 40.0121 24.5823 39.3114 23.2819 38.0493C21.7789 36.5228 20.6793 34.6465 20.0819 32.5893C19.9922 32.2865 19.9748 31.9669 20.0311 31.6562C20.0874 31.3455 20.2157 31.0524 20.4059 30.8003C20.5903 30.5514 20.8307 30.3494 21.1076 30.2104C21.3844 30.0715 21.6901 29.9995 21.9999 30.0003H37.9999C38.3106 29.9985 38.6175 30.0701 38.8955 30.2091C39.1734 30.348 39.4148 30.5506 39.5999 30.8003C39.7886 31.053 39.9156 31.3465 39.9704 31.6572C40.0253 31.9679 40.0066 32.2871 39.9159 32.5893V32.5893Z" fill="#333333"/>
</g>
<defs>
<clipPath id="clip0_1824_59">
<rect width="24" height="24" fill="white" transform="translate(18 18)"/>
</clipPath>
</defs>
</svg>
