<svg width="60" height="60" viewBox="0 0 60 60" fill="none" xmlns="http://www.w3.org/2000/svg">
<rect width="60" height="60" rx="30" fill="white"/>
<g clip-path="url(#clip0_1824_56)">
<path d="M37 24H31C30.0868 24.0033 29.1921 24.2574 28.4134 24.7344C27.6347 25.2114 27.0019 25.893 26.584 26.705C25.9844 26.2498 25.2528 26.0023 24.5 26C23.5717 26 22.6815 26.3687 22.0251 27.0251C21.3687 27.6815 21 28.5717 21 29.5C21.0029 30.02 21.1229 30.5327 21.351 31H20V21C20 20.7348 19.8946 20.4804 19.7071 20.2929C19.5196 20.1054 19.2652 20 19 20C18.7348 20 18.4804 20.1054 18.2929 20.2929C18.1054 20.4804 18 20.7348 18 21V39C18 39.2652 18.1054 39.5196 18.2929 39.7071C18.4804 39.8946 18.7348 40 19 40C19.2652 40 19.5196 39.8946 19.7071 39.7071C19.8946 39.5196 20 39.2652 20 39V37H40V39C40 39.2652 40.1054 39.5196 40.2929 39.7071C40.4804 39.8946 40.7348 40 41 40C41.2652 40 41.5196 39.8946 41.7071 39.7071C41.8946 39.5196 42 39.2652 42 39V29C41.9984 27.6744 41.4711 26.4036 40.5338 25.4662C39.5964 24.5289 38.3256 24.0016 37 24V24ZM28 29C28 28.2044 28.3161 27.4413 28.8787 26.8787C29.4413 26.3161 30.2044 26 31 26H37C37.7956 26 38.5587 26.3161 39.1213 26.8787C39.6839 27.4413 40 28.2044 40 29V31H28V29ZM23 29.5C23 29.2033 23.088 28.9133 23.2528 28.6666C23.4176 28.42 23.6519 28.2277 23.926 28.1142C24.2001 28.0007 24.5017 27.9709 24.7926 28.0288C25.0836 28.0867 25.3509 28.2296 25.5607 28.4393C25.7704 28.6491 25.9133 28.9164 25.9712 29.2074C26.0291 29.4983 25.9994 29.7999 25.8858 30.074C25.7723 30.3481 25.58 30.5824 25.3334 30.7472C25.0867 30.912 24.7967 31 24.5 31C24.1022 31 23.7206 30.842 23.4393 30.5607C23.158 30.2794 23 29.8978 23 29.5ZM20 35V33H40V35H20Z" fill="#333333"/>
</g>
<defs>
<clipPath id="clip0_1824_56">
<rect width="24" height="24" fill="white" transform="translate(18 18)"/>
</clipPath>
</defs>
</svg>
